# xmcd
#
# Track frame offsets:
# 150
# 16737
# 30045
# 44526
# 60522
# 71792
# 86191
# 105181
# 120183
#
# Disc length: 1812 seconds
#
#
# Revision: 0
# Processed by: cddbd v1.5.2PL0 Copyright (c) Steve Scherf et al.
# Submitted via: Nero 7, 11, 10, 0 
#
DISCID=60071209
DTITLE=Shakey Jake - The Key Won't Fit
DYEAR=1984
DGENRE=Blues
TTITLE0=Do The Boogie With You
TTITLE1=Cross My Heart
TTITLE2=The Key Won't Fit
TTITLE3=Down So Long
TTITLE4=What You Want Me To do
TTITLE5=Let Me Tell You Baby
TTITLE6=Never Leave You
TTITLE7=Save Your Money
TTITLE8=Easy Baby
EXTD=
EXTT0=Do The Boogie With You
EXTT1=Cross My Heart
EXTT2=The Key Won't Fit
EXTT3=Down So Long
EXTT4=What You Want Me To do
EXTT5=Let Me Tell You Baby
EXTT6=Never Leave You
EXTT7=Save Your Money
EXTT8=Easy Baby
PLAYORDER=
